<?xml version="1.0" standalone="yes"?>
<svg xmlns="http://www.w3.org/2000/svg" width="237" height="100">
<path style="fill:#ffffff; stroke:none;" d="M0 0L0 100L237 100L237 0L0 0z"/>
<path style="fill:#9f9f9f; stroke:none;" d="M25.6667 23.3333C25.2222 23.7778 26.2778 23.7222 26.3333 23.6667C26.7778 23.2222 25.7222 23.2778 25.6667 23.3333z"/>
<path style="fill:#7f7f7f; stroke:none;" d="M24 24L25 25L24 24z"/>
<path style="fill:#000000; stroke:none;" d="M36 66C26.2965 62.0469 16.7608 61.23 13 73C16.2523 71.2109 19.1664 69.6394 23 70.3951C25.8922 70.9651 28.8735 73.4157 31.9066 72.8673C40.7462 71.2689 43.6428 54.1532 38.4421 48.3287C34.7892 44.2377 28.9649 43.5715 25.152 39.7755C22.7083 37.3425 22.4791 35.2013 23 32C30.9881 34.9113 39.9813 34.9762 42 25C39.3679 25.8271 36.8051 26.7812 34 26.3781C31.4169 26.0069 28.7598 24.1651 26.0903 24.8133C23.2074 25.5133 21.3635 28.6982 19.8657 31.0008C18.6267 32.9055 17.4024 34.8956 16.5301 37C11.4283 49.3069 28.8908 50.5656 34.6782 57.213C37.04 59.9257 36.5666 62.7409 36 66z"/>
<path style="fill:#5f5f5f; stroke:none;" d="M28 24L29 25L28 24z"/>
<path style="fill:#1f1f1f; stroke:none;" d="M42 24L42 27C42.6961 25.4463 42.6961 25.5537 42 24z"/>
<path style="fill:#bfbfbf; stroke:none;" d="M23 25L24 26L23 25z"/>
<path style="fill:#7f7f7f; stroke:none;" d="M30 25L31 26L30 25z"/>
<path style="fill:#5f5f5f; stroke:none;" d="M40 25L41 26L40 25z"/>
<path style="fill:#7f7f7f; stroke:none;" d="M33 26C34.769 26.7789 36.0359 26.9124 38 27C36.231 26.2211 34.9641 26.0876 33 26z"/>
<path style="fill:#bfbfbf; stroke:none;" d="M48 26L49 27L48 26z"/>
<path style="fill:#3f3f3f; stroke:none;" d="M22 27L23 28L22 27z"/>
<path style="fill:#bfbfbf; stroke:none;" d="M42 27L43 28L42 27z"/>
<path style="fill:#5f5f5f; stroke:none;" d="M47 27C45.8137 28.1863 45.4721 28.5838 45 30C46.5481 28.7383 46.808 28.8061 47 27z"/>
<path style="fill:#000000; stroke:none;" d="M48 27C45.789 30.3952 45.789 31.6048 48 35C51.4293 32.0337 51.4293 29.9664 48 27z"/>
<path style="fill:#7f7f7f; stroke:none;" d="M49 27L50 28L49 27z"/>
<path style="fill:#bfbfbf; stroke:none;" d="M163 27L164 28L163 27z"/>
<path style="fill:#7f7f7f; stroke:none;" d="M164 27C164.545 28.6352 164.365 28.4549 166 29L166 27L164 27M21 28L22 29L21 28z"/>
<path style="fill:#3f3f3f; stroke:none;" d="M41 28L42 29L41 28z"/>
<path style="fill:#7f7f7f; stroke:none;" d="M50 28L51 29L50 28z"/>
<path style="fill:#bfbfbf; stroke:none;" d="M161 28L162 29L161 28z"/>
<path style="fill:#3f3f3f; stroke:none;" d="M162 28L163 29L162 28z"/>
<path style="fill:#000000; stroke:none;" d="M157 69C160.039 70.3291 162.438 71.8918 165 74C167.486 72.5449 169.173 71.2183 171 69C165.28 65.7907 166 60.9356 166 55C166 45.9463 165 37.0439 165 28C158.199 30.0876 159 34.7625 159 41C159 50.0496 160.585 60.5403 157 69z"/>
<path style="fill:#bfbfbf; stroke:none;" d="M20 29L21 30L20 29z"/>
<path style="fill:#7f7f7f; stroke:none;" d="M51 29L52 30L51 29z"/>
<path style="fill:#3f3f3f; stroke:none;" d="M160 29L161 30L160 29M165 29L165 33C165.71 31.2405 165.71 30.7595 165 29z"/>
<path style="fill:#9f9f9f; stroke:none;" d="M40 30L41 31L40 30z"/>
<path style="fill:#7f7f7f; stroke:none;" d="M44.3333 30.6667C44.2778 30.7222 44.2222 31.7778 44.6667 31.3333C44.7222 31.2778 44.7778 30.2222 44.3333 30.6667M52.3333 30.6667C52.2778 30.7222 52.2222 31.7778 52.6667 31.3333C52.7222 31.2778 52.7778 30.2222 52.3333 30.6667M19 31L20 32L19 31z"/>
<path style="fill:#9f9f9f; stroke:none;" d="M39 31L40 32L39 31z"/>
<path style="fill:#dfdfdf; stroke:none;" d="M23.6667 32.3333C23.2222 32.7778 24.2778 32.7222 24.3333 32.6667C24.7778 32.2222 23.7222 32.2778 23.6667 32.3333z"/>
<path style="fill:#9f9f9f; stroke:none;" d="M38 32L39 33L38 32z"/>
<path style="fill:#5f5f5f; stroke:none;" d="M45 32L46 33L45 32z"/>
<path style="fill:#7f7f7f; stroke:none;" d="M51 32L52 33L51 32z"/>
<path style="fill:#3f3f3f; stroke:none;" d="M18 33L19 34L18 33z"/>
<path style="fill:#9f9f9f; stroke:none;" d="M22 33L23 34L22 33z"/>
<path style="fill:#7f7f7f; stroke:none;" d="M26 33L27 34L26 33z"/>
<path style="fill:#3f3f3f; stroke:none;" d="M36 33L37 34L36 33z"/>
<path style="fill:#5f5f5f; stroke:none;" d="M46 33L47 34L46 33z"/>
<path style="fill:#7f7f7f; stroke:none;" d="M50 33L51 34L50 33z"/>
<path style="fill:#1f1f1f; stroke:none;" d="M165 33L165 41C166.161 38.2302 166.161 35.7699 165 33z"/>
<path style="fill:#9f9f9f; stroke:none;" d="M17 34L18 35L17 34z"/>
<path style="fill:#bfbfbf; stroke:none;" d="M28 34L29 35L28 34z"/>
<path style="fill:#3f3f3f; stroke:none;" d="M29.6667 34.3333C29.2222 34.7778 30.2778 34.7222 30.3333 34.6667C30.7778 34.2222 29.7222 34.2778 29.6667 34.3333z"/>
<path style="fill:#1f1f1f; stroke:none;" d="M31 34C32.2483 34.6848 32.5484 34.7488 34 35C32.7516 34.3152 32.4516 34.2512 31 34z"/>
<path style="fill:#7f7f7f; stroke:none;" d="M34 34L35 35L34 34z"/>
<path style="fill:#bfbfbf; stroke:none;" d="M35 34L36 35L35 34z"/>
<path style="fill:#5f5f5f; stroke:none;" d="M47 34L48 35L47 34z"/>
<path style="fill:#9f9f9f; stroke:none;" d="M49 34L50 35L49 34z"/>
<path style="fill:#bfbfbf; stroke:none;" d="M48 35L49 36L48 35z"/>
<path style="fill:#9f9f9f; stroke:none;" d="M16 36L17 37L16 36z"/>
<path style="fill:#7f7f7f; stroke:none;" d="M22 37L23 38L22 37z"/>
<path style="fill:#bfbfbf; stroke:none;" d="M180 37L181 38L180 37z"/>
<path style="fill:#9f9f9f; stroke:none;" d="M193 37L194 38L193 37z"/>
<path style="fill:#bfbfbf; stroke:none;" d="M15 38L16 39L15 38z"/>
<path style="fill:#5f5f5f; stroke:none;" d="M179 38L180 39L179 38z"/>
<path style="fill:#000000; stroke:none;" d="M173 72L178 70L178 83C183.929 80.4599 184.978 77.1351 185 71C190.103 73.1769 197.121 70.2475 199.397 64.8156C201.109 60.7288 200.057 54.3633 199.996 50C199.938 45.8677 199.083 39.7605 193.985 38.8812C190.685 38.3121 186.849 41.6543 184 43C182.728 40.5433 179.252 37.0387 177.157 41.2477C176.107 43.3558 177.408 45.8741 177.742 48C178.345 51.8494 178.148 56.1124 177.981 59.9992C177.772 64.835 174.528 67.6525 173 72z"/>
<path style="fill:#7f7f7f; stroke:none;" d="M181 38L182 39L181 38z"/>
<path style="fill:#9f9f9f; stroke:none;" d="M191 38L192 39L191 38z"/>
<path style="fill:#5f5f5f; stroke:none;" d="M15 39L16 40L15 39z"/>
<path style="fill:#bfbfbf; stroke:none;" d="M47 39L48 40L47 39z"/>
<path style="fill:#7f7f7f; stroke:none;" d="M48 39L49 40L48 39z"/>
<path style="fill:#bfbfbf; stroke:none;" d="M63 39L64 40L63 39z"/>
<path style="fill:#000000; stroke:none;" d="M64 39L59 43C65.7642 52.3686 56.9069 66.1813 65 74L71 70C68.6074 64.3536 68.1758 57.0987 69.1481 51.0054C69.5333 48.5918 71.6657 44.8143 74.4012 47.466C76.6764 49.6715 75.9987 54.156 76 57C76.003 63.6703 75.4975 68.676 80 74C82.9966 71.9968 85.2958 70.1861 87 67L84 68C82.2831 60.7885 84.4787 53.0667 82.6821 46.0039C81.8106 42.5776 78.7642 39.42 75.0046 40.5278C72.8939 41.1497 70.8593 42.8643 69 44C67.5806 41.6465 66.3237 40.481 64 39z"/>
<path style="fill:#3f3f3f; stroke:none;" d="M65 39L66 40L65 39z"/>
<path style="fill:#5f5f5f; stroke:none;" d="M75 39L76 40L75 39M77 39L78 40L77 39M114 39L115 40L114 39z"/>
<path style="fill:#9f9f9f; stroke:none;" d="M115 39L116 40L115 39M133 39L134 40L133 39z"/>
<path style="fill:#7f7f7f; stroke:none;" d="M147 39L148 40L147 39z"/>
<path style="fill:#bfbfbf; stroke:none;" d="M182 39L183 40L182 39z"/>
<path style="fill:#3f3f3f; stroke:none;" d="M190 39L191 40L190 39z"/>
<path style="fill:#bfbfbf; stroke:none;" d="M25 40L26 41L25 40z"/>
<path style="fill:#7f7f7f; stroke:none;" d="M46 40L47 41L46 40z"/>
<path style="fill:#000000; stroke:none;" d="M44 42C45.286 52.1755 41.8714 66.2205 49 74C52.2561 72.0983 54.3403 70.4005 56 67L52 68C52 62.3371 51.8876 56.6615 52.0147 51C52.0678 48.632 52.9173 45.4416 51.8025 43.233C50.124 39.9078 46.7087 40.9997 44 42z"/>
<path style="fill:#3f3f3f; stroke:none;" d="M49 40L50 41L49 40z"/>
<path style="fill:#7f7f7f; stroke:none;" d="M62 40L63 41L62 40z"/>
<path style="fill:#3f3f3f; stroke:none;" d="M66 40L67 41L66 40M74 40L75 41L74 40M113 40L114 41L113 40z"/>
<path style="fill:#000000; stroke:none;" d="M104 46C108.748 52.5768 107.416 62.3717 106 70C109.321 70.9158 112.091 72.1562 115 74C118.318 72.0785 120.723 70.0864 123 67L122 66C110.671 70.1952 114 52.9191 114 46L120 48C120.89 46.2553 121.453 44.875 122 43C114.48 38.809 111.017 42.9339 104 46z"/>
<path style="fill:#7f7f7f; stroke:none;" d="M117 40L118 41L117 40z"/>
<path style="fill:#000000; stroke:none;" d="M127 46C132.792 49.7553 130.344 63.4692 128 69C130.57 70.4734 132.743 72.0778 135 74C137.67 72.2244 139.894 70.4154 142 68C146.857 73.2366 150.315 74.0279 155 68C148.549 64.4425 149.944 50.726 153 45C150.739 42.0439 145.559 38.1446 143.773 44.0594C141.041 53.1104 148.268 61.8657 138 68C136.751 62.7558 136.885 57.3713 137.015 52C137.074 49.5493 137.965 46.4864 137.227 44.1096C135.202 37.5864 129.192 42.9982 127 46z"/>
<path style="fill:#3f3f3f; stroke:none;" d="M134 40L135 41L134 40z"/>
<path style="fill:#bfbfbf; stroke:none;" d="M149 40L150 41L149 40M176 40L177 41L176 40z"/>
<path style="fill:#9f9f9f; stroke:none;" d="M188 40L189 41L188 40z"/>
<path style="fill:#bfbfbf; stroke:none;" d="M211 40L210 42C211.263 41.0286 211.392 41.3063 211 40z"/>
<path style="fill:#000000; stroke:none;" d="M201 70C203.441 71.1311 206.225 73.1693 209 73.1535C211.151 73.1413 212.9 71.68 215 71.463C220.794 70.8639 222.737 73.5906 227 68C220.564 64.0523 222.798 53.4722 224 47C221.44 45.3063 218.819 43.3568 216 42.1134C212.819 40.7101 210.797 41.6996 208.005 43.4406C198.822 49.165 202.76 60.5223 201 70z"/>
<path style="fill:#7f7f7f; stroke:none;" d="M213 40L214 41L213 40z"/>
<path style="fill:#5f5f5f; stroke:none;" d="M26 41L27 42L26 41z"/>
<path style="fill:#3f3f3f; stroke:none;" d="M45 41L46 42L45 41z"/>
<path style="fill:#9f9f9f; stroke:none;" d="M51 41L52 42L51 41z"/>
<path style="fill:#5f5f5f; stroke:none;" d="M61 41L62 42L61 41z"/>
<path style="fill:#7f7f7f; stroke:none;" d="M119 41L120 42L119 41z"/>
<path style="fill:#bfbfbf; stroke:none;" d="M130 41L131 42L130 41M144 41L145 42L144 41M150 41L151 42L150 41z"/>
<path style="fill:#5f5f5f; stroke:none;" d="M175.333 41.6667C175.278 41.7222 175.222 42.7778 175.667 42.3333C175.722 42.2777 175.778 41.2222 175.333 41.6667M187 41L188 42L187 41z"/>
<path style="fill:#9f9f9f; stroke:none;" d="M215 41L216 42L215 41z"/>
<path style="fill:#5f5f5f; stroke:none;" d="M28 42L29 43L28 42z"/>
<path style="fill:#bfbfbf; stroke:none;" d="M29 42L30 43L29 42z"/>
<path style="fill:#5f5f5f; stroke:none;" d="M52 42L53 43L52 42z"/>
<path style="fill:#3f3f3f; stroke:none;" d="M68 42L69 43L68 42z"/>
<path style="fill:#9f9f9f; stroke:none;" d="M71 42L72 43L71 42M110 42L111 43L110 42z"/>
<path style="fill:#7f7f7f; stroke:none;" d="M121 42L122 43L121 42z"/>
<path style="fill:#9f9f9f; stroke:none;" d="M129 42L130 43L129 42z"/>
<path style="fill:#bfbfbf; stroke:none;" d="M151 42L152 43L151 42z"/>
<path style="fill:#5f5f5f; stroke:none;" d="M184 42L185 43L184 42z"/>
<path style="fill:#bfbfbf; stroke:none;" d="M185 42L186 43L185 42z"/>
<path style="fill:#7f7f7f; stroke:none;" d="M209 42L210 43L209 42z"/>
<path style="fill:#3f3f3f; stroke:none;" d="M216 42L217 43L216 42z"/>
<path style="fill:#7f7f7f; stroke:none;" d="M31 43L32 44L31 43z"/>
<path style="fill:#3f3f3f; stroke:none;" d="M43 43L44 44L43 43z"/>
<path style="fill:#5f5f5f; stroke:none;" d="M53.3333 43.6667C53.2778 43.7222 53.2222 44.7778 53.6667 44.3333C53.7222 44.2778 53.7778 43.2222 53.3333 43.6667z"/>
<path style="fill:#9f9f9f; stroke:none;" d="M58 43L59 44L58 43M69 43L70 44L69 43z"/>
<path style="fill:#5f5f5f; stroke:none;" d="M70 43L71 44L70 43z"/>
<path style="fill:#3f3f3f; stroke:none;" d="M109 43L110 44L109 43M122 43L123 44L122 43z"/>
<path style="fill:#9f9f9f; stroke:none;" d="M128 43L129 44L128 43M152 43L153 44L152 43z"/>
<path style="fill:#3f3f3f; stroke:none;" d="M199 43L200 44L199 43z"/>
<path style="fill:#5f5f5f; stroke:none;" d="M208 43L209 44L208 43z"/>
<path style="fill:#7f7f7f; stroke:none;" d="M218 43L219 44L218 43M15 44L16 45L15 44z"/>
<path style="fill:#5f5f5f; stroke:none;" d="M33 44L34 45L33 44z"/>
<path style="fill:#9f9f9f; stroke:none;" d="M43 44L44 45L43 44z"/>
<path style="fill:#5f5f5f; stroke:none;" d="M58 44C59.2483 44.6848 59.5484 44.7488 61 45C59.7516 44.3152 59.4516 44.2512 58 44z"/>
<path style="fill:#7f7f7f; stroke:none;" d="M107 44L108 45L107 44z"/>
<path style="fill:#9f9f9f; stroke:none;" d="M122 44L123 45L122 44z"/>
<path style="fill:#5f5f5f; stroke:none;" d="M127 44L128 45L127 44z"/>
<path style="fill:#3f3f3f; stroke:none;" d="M138 44L139 45L138 44z"/>
<path style="fill:#5f5f5f; stroke:none;" d="M142 44L143 45L142 44z"/>
<path style="fill:#bfbfbf; stroke:none;" d="M188 44L189 45L188 44z"/>
<path style="fill:#ffffff; stroke:none;" d="M185 64C187.775 64.4103 190.327 65.1489 193 66C193 61.0481 193.375 55.9337 192.941 51.0008C192.758 48.9108 192.25 46.1338 189.871 45.4614C187.467 44.7818 185.86 47.0333 185.318 49.0448C184.096 53.5799 185 59.3211 185 64z"/>
<path style="fill:#7f7f7f; stroke:none;" d="M190 44L191 45L190 44M206 44L207 45L206 44z"/>
<path style="fill:#bfbfbf; stroke:none;" d="M220 44L221 45L220 44z"/>
<path style="fill:#3f3f3f; stroke:none;" d="M16 45L17 46L16 45z"/>
<path style="fill:#7f7f7f; stroke:none;" d="M35 45L36 46L35 45z"/>
<path style="fill:#bfbfbf; stroke:none;" d="M44 45L45 46L44 45z"/>
<path style="fill:#5f5f5f; stroke:none;" d="M52 45L53 46L52 45z"/>
<path style="fill:#bfbfbf; stroke:none;" d="M61 45L62 46L61 45z"/>
<path style="fill:#7f7f7f; stroke:none;" d="M71 45L72 46L71 45M73 45L74 46L73 45z"/>
<path style="fill:#9f9f9f; stroke:none;" d="M83 45L83 49C83.7102 47.2405 83.7102 46.7595 83 45z"/>
<path style="fill:#bfbfbf; stroke:none;" d="M104 45L105 46L104 45z"/>
<path style="fill:#5f5f5f; stroke:none;" d="M105 45L106 46L105 45z"/>
<path style="fill:#3f3f3f; stroke:none;" d="M121 45L122 46L121 45z"/>
<path style="fill:#9f9f9f; stroke:none;" d="M126 45L127 46L126 45z"/>
<path style="fill:#bfbfbf; stroke:none;" d="M152 45L153 46L152 45M177 45L178 46L177 45z"/>
<path style="fill:#3f3f3f; stroke:none;" d="M186 45L187 46L186 45z"/>
<path style="fill:#bfbfbf; stroke:none;" d="M191 45L192 46L191 45z"/>
<path style="fill:#7f7f7f; stroke:none;" d="M204 45L205 46L204 45z"/>
<path style="fill:#5f5f5f; stroke:none;" d="M221 45L222 46L221 45z"/>
<path style="fill:#3f3f3f; stroke:none;" d="M17 46L18 47L17 46M36 46L37 47L36 46z"/>
<path style="fill:#9f9f9f; stroke:none;" d="M70 46L71 47L70 46M74 46L75 47L74 46z"/>
<path style="fill:#bfbfbf; stroke:none;" d="M114 46L115 47L114 46z"/>
<path style="fill:#5f5f5f; stroke:none;" d="M115 46L116 47L115 46z"/>
<path style="fill:#9f9f9f; stroke:none;" d="M127 46L128 47L127 46z"/>
<path style="fill:#bfbfbf; stroke:none;" d="M129 46L130 47L129 46M143 46L144 47L143 46z"/>
<path style="fill:#9f9f9f; stroke:none;" d="M151 46L152 47L151 46z"/>
<path style="fill:#5f5f5f; stroke:none;" d="M185 46L186 47L185 46z"/>
<path style="fill:#bfbfbf; stroke:none;" d="M192 46L193 47L192 46z"/>
<path style="fill:#9f9f9f; stroke:none;" d="M202 46L203 47L202 46z"/>
<path style="fill:#bfbfbf; stroke:none;" d="M223 46L224 47L223 46z"/>
<path style="fill:#5f5f5f; stroke:none;" d="M18 47L19 48L18 47z"/>
<path style="fill:#bfbfbf; stroke:none;" d="M69 47L70 48L69 47M75 47L76 48L75 47z"/>
<path style="fill:#9f9f9f; stroke:none;" d="M105 47L106 48L105 47z"/>
<path style="fill:#5f5f5f; stroke:none;" d="M117 47L118 48L117 47z"/>
<path style="fill:#9f9f9f; stroke:none;" d="M120 47L121 48L120 47z"/>
<path style="fill:#bfbfbf; stroke:none;" d="M209.667 47.3333C209.222 47.7778 210.278 47.7222 210.333 47.6667C210.778 47.2223 209.722 47.2778 209.667 47.3333z"/>
<path style="fill:#7f7f7f; stroke:none;" d="M224.333 47.6667C224.278 47.7222 224.222 48.7778 224.667 48.3333C224.722 48.2777 224.778 47.2223 224.333 47.6667z"/>
<path style="fill:#9f9f9f; stroke:none;" d="M19 48L20 49L19 48M106 48L106 51C106.696 49.4463 106.696 49.5537 106 48M119 48L120 49L119 48z"/>
<path style="fill:#ffffff; stroke:none;" d="M209 48L209 56C209 57.6619 208.946 59.3355 209.019 60.9961C209.129 63.5 211.493 70.1331 214.973 66.2137C216.338 64.6763 215.987 61.8806 215.999 59.9992C216.039 53.812 215.611 49.7398 209 48z"/>
<path style="fill:#7f7f7f; stroke:none;" d="M212 48L213 49L212 48M21 49L22 50L21 49z"/>
<path style="fill:#3f3f3f; stroke:none;" d="M39 49L40 50L39 49z"/>
<path style="fill:#dfdfdf; stroke:none;" d="M83 49L83 52C83.6961 50.4463 83.6961 50.5537 83 49z"/>
<path style="fill:#bfbfbf; stroke:none;" d="M213 49L214 50L213 49z"/>
<path style="fill:#9f9f9f; stroke:none;" d="M223 49L224 50L223 49z"/>
<path style="fill:#5f5f5f; stroke:none;" d="M23 50L24 51L23 50z"/>
<path style="fill:#7f7f7f; stroke:none;" d="M40 50L41 51L40 50z"/>
<path style="fill:#bfbfbf; stroke:none;" d="M214 50L215 51L214 50z"/>
<path style="fill:#5f5f5f; stroke:none;" d="M25 51L26 52L25 51z"/>
<path style="fill:#dfdfdf; stroke:none;" d="M106 51L106 55C106.71 53.2405 106.71 52.7595 106 51z"/>
<path style="fill:#7f7f7f; stroke:none;" d="M27 52L28 53L27 52M41 52L42 53L41 52M29 53L30 54L29 53z"/>
<path style="fill:#3f3f3f; stroke:none;" d="M41 53L42 54L41 53z"/>
<path style="fill:#9f9f9f; stroke:none;" d="M31 54L32 55L31 54z"/>
<path style="fill:#7f7f7f; stroke:none;" d="M33 55L34 56L33 55z"/>
<path style="fill:#bfbfbf; stroke:none;" d="M34 56L35 57L34 56z"/>
<path style="fill:#1f1f1f; stroke:none;" d="M41.3333 56.6667C41.2778 56.7222 41.2222 57.7778 41.6667 57.3333C41.7222 57.2778 41.7778 56.2222 41.3333 56.6667z"/>
<path style="fill:#bfbfbf; stroke:none;" d="M35 57L36 58L35 57z"/>
<path style="fill:#5f5f5f; stroke:none;" d="M36 58L37 59L36 58M41 58L42 59L41 58z"/>
<path style="fill:#bfbfbf; stroke:none;" d="M36 59L37 60L36 59z"/>
<path style="fill:#9f9f9f; stroke:none;" d="M41 59L42 60L41 59z"/>
<path style="fill:#3f3f3f; stroke:none;" d="M40 61L41 62L40 61z"/>
<path style="fill:#dfdfdf; stroke:none;" d="M75 61L75 64C75.6961 62.4463 75.6961 62.5537 75 61z"/>
<path style="fill:#9f9f9f; stroke:none;" d="M21 62L22 63L21 62z"/>
<path style="fill:#3f3f3f; stroke:none;" d="M22 62C23.769 62.7789 25.0359 62.9124 27 63C25.231 62.2211 23.9641 62.0876 22 62z"/>
<path style="fill:#9f9f9f; stroke:none;" d="M27 62L28 63L27 62z"/>
<path style="fill:#bfbfbf; stroke:none;" d="M36 62L37 63L36 62z"/>
<path style="fill:#9f9f9f; stroke:none;" d="M40 62L41 63L40 62z"/>
<path style="fill:#3f3f3f; stroke:none;" d="M19 63L20 64L19 63z"/>
<path style="fill:#7f7f7f; stroke:none;" d="M30 63L31 64L30 63z"/>
<path style="fill:#bfbfbf; stroke:none;" d="M31 63L32 64L31 63z"/>
<path style="fill:#5f5f5f; stroke:none;" d="M36 63L37 64L36 63z"/>
<path style="fill:#bfbfbf; stroke:none;" d="M17 64L18 65L17 64z"/>
<path style="fill:#3f3f3f; stroke:none;" d="M32 64L33 65L32 64z"/>
<path style="fill:#9f9f9f; stroke:none;" d="M33 64L34 65L33 64z"/>
<path style="fill:#7f7f7f; stroke:none;" d="M39 64L40 65L39 64z"/>
<path style="fill:#bfbfbf; stroke:none;" d="M75.3333 64.6667C75.2778 64.7223 75.2222 65.7778 75.6667 65.3333C75.7222 65.2778 75.7778 64.2222 75.3333 64.6667z"/>
<path style="fill:#5f5f5f; stroke:none;" d="M143 64L144 65L143 64z"/>
<path style="fill:#3f3f3f; stroke:none;" d="M186 64L187 65L186 64z"/>
<path style="fill:#7f7f7f; stroke:none;" d="M187 64L188 65L187 64z"/>
<path style="fill:#bfbfbf; stroke:none;" d="M188 64L189 65L188 64z"/>
<path style="fill:#dfdfdf; stroke:none;" d="M201 64L201 68C201.71 66.2405 201.71 65.7595 201 64z"/>
<path style="fill:#1f1f1f; stroke:none;" d="M34.6667 65.3333C34.2222 65.7778 35.2778 65.7222 35.3333 65.6667C35.7778 65.2222 34.7222 65.2778 34.6667 65.3333z"/>
<path style="fill:#3f3f3f; stroke:none;" d="M142 65L143 66L142 65z"/>
<path style="fill:#9f9f9f; stroke:none;" d="M158.333 65.6667C158.278 65.7222 158.222 66.7778 158.667 66.3333C158.722 66.2777 158.778 65.2222 158.333 65.6667z"/>
<path style="fill:#5f5f5f; stroke:none;" d="M177 65L178 66L177 65M190 65L191 66L190 65z"/>
<path style="fill:#bfbfbf; stroke:none;" d="M191 65L192 66L191 65z"/>
<path style="fill:#9f9f9f; stroke:none;" d="M38 66L39 67L38 66M44 66L45 67L44 66z"/>
<path style="fill:#dfdfdf; stroke:none;" d="M54.6667 66.3333C54.2222 66.7778 55.2778 66.7222 55.3333 66.6667C55.7778 66.2222 54.7222 66.2778 54.6667 66.3333z"/>
<path style="fill:#9f9f9f; stroke:none;" d="M75 66L75 70C75.7102 68.2405 75.7102 67.7595 75 66z"/>
<path style="fill:#5f5f5f; stroke:none;" d="M114 66L115 67L114 66z"/>
<path style="fill:#9f9f9f; stroke:none;" d="M120 66L121 67L120 66z"/>
<path style="fill:#3f3f3f; stroke:none;" d="M122 66L123 67L122 66z"/>
<path style="fill:#7f7f7f; stroke:none;" d="M129 66L130 67L129 66z"/>
<path style="fill:#5f5f5f; stroke:none;" d="M137 66L138 67L137 66z"/>
<path style="fill:#bfbfbf; stroke:none;" d="M140 66L141 67L140 66M151 66L152 67L151 66z"/>
<path style="fill:#5f5f5f; stroke:none;" d="M166 66L167 67L166 66z"/>
<path style="fill:#3f3f3f; stroke:none;" d="M176 66L177 67L176 66z"/>
<path style="fill:#9f9f9f; stroke:none;" d="M199 66L200 67L199 66z"/>
<path style="fill:#5f5f5f; stroke:none;" d="M209 66L210 67L209 66M223 66L224 67L223 66z"/>
<path style="fill:#3f3f3f; stroke:none;" d="M15 67L16 68L15 67M37 67L38 68L37 67z"/>
<path style="fill:#7f7f7f; stroke:none;" d="M52.6667 67.3333C52.2222 67.7778 53.2778 67.7222 53.3333 67.6667C53.7778 67.2222 52.7222 67.2778 52.6667 67.3333z"/>
<path style="fill:#3f3f3f; stroke:none;" d="M69 67L70 68L69 67z"/>
<path style="fill:#bfbfbf; stroke:none;" d="M84.6667 67.3333C84.2222 67.7778 85.2778 67.7222 85.3333 67.6667C85.7778 67.2222 84.7222 67.2778 84.6667 67.3333M87.3333 67.6667C87.2778 67.7222 87.2222 68.7778 87.6667 68.3333C87.7222 68.2778 87.7778 67.2222 87.3333 67.6667M106 67L107 68L106 67z"/>
<path style="fill:#5f5f5f; stroke:none;" d="M116 67L117 68L116 67z"/>
<path style="fill:#dfdfdf; stroke:none;" d="M117.667 67.3333C117.222 67.7778 118.278 67.7222 118.333 67.6667C118.778 67.2222 117.722 67.2778 117.667 67.3333z"/>
<path style="fill:#3f3f3f; stroke:none;" d="M119 67L120 68L119 67z"/>
<path style="fill:#7f7f7f; stroke:none;" d="M123 67L124 68L123 67z"/>
<path style="fill:#bfbfbf; stroke:none;" d="M128 67L129 68L128 67z"/>
<path style="fill:#5f5f5f; stroke:none;" d="M138.667 67.3333C138.222 67.7778 139.278 67.7222 139.333 67.6667C139.778 67.2222 138.722 67.2778 138.667 67.3333z"/>
<path style="fill:#bfbfbf; stroke:none;" d="M152 67C153.248 67.6848 153.548 67.7488 155 68C153.752 67.3152 153.452 67.2512 152 67z"/>
<path style="fill:#3f3f3f; stroke:none;" d="M167 67L168 68L167 67z"/>
<path style="fill:#7f7f7f; stroke:none;" d="M197 67L198 68L197 67z"/>
<path style="fill:#9f9f9f; stroke:none;" d="M211 67L212 68L211 67z"/>
<path style="fill:#bfbfbf; stroke:none;" d="M214 67L215 68L214 67z"/>
<path style="fill:#3f3f3f; stroke:none;" d="M215 67L216 68L215 67z"/>
<path style="fill:#7f7f7f; stroke:none;" d="M225.667 67.3333C225.222 67.7778 226.278 67.7222 226.333 67.6667C226.778 67.2223 225.722 67.2778 225.667 67.3333z"/>
<path style="fill:#9f9f9f; stroke:none;" d="M227.333 67.6667C227.278 67.7223 227.222 68.7777 227.667 68.3333C227.722 68.2778 227.778 67.2222 227.333 67.6667M14 68L15 69L14 68z"/>
<path style="fill:#5f5f5f; stroke:none;" d="M43 68L44 69L43 68z"/>
<path style="fill:#bfbfbf; stroke:none;" d="M56 68L57 69L56 68z"/>
<path style="fill:#dfdfdf; stroke:none;" d="M59.3333 68.6667C59.2778 68.7222 59.2222 69.7778 59.6667 69.3333C59.7222 69.2778 59.7778 68.2222 59.3333 68.6667z"/>
<path style="fill:#1f1f1f; stroke:none;" d="M60.3333 68.6667C60.2778 68.7222 60.2222 69.7778 60.6667 69.3333C60.7222 69.2778 60.7778 68.2222 60.3333 68.6667z"/>
<path style="fill:#5f5f5f; stroke:none;" d="M70 68L71 69L70 68z"/>
<path style="fill:#3f3f3f; stroke:none;" d="M122 68L123 69L122 68M142 68L143 69L142 68M169 68C170.248 68.6848 170.548 68.7488 172 69C170.752 68.3152 170.452 68.2512 169 68z"/>
<path style="fill:#bfbfbf; stroke:none;" d="M196 68L197 69L196 68z"/>
<path style="fill:#5f5f5f; stroke:none;" d="M212.667 68.3333C212.222 68.7778 213.278 68.7222 213.333 68.6667C213.778 68.2222 212.722 68.2778 212.667 68.3333z"/>
<path style="fill:#7f7f7f; stroke:none;" d="M36 69L37 70L36 69z"/>
<path style="fill:#5f5f5f; stroke:none;" d="M44 69L45 70L44 69z"/>
<path style="fill:#bfbfbf; stroke:none;" d="M55 69L56 70L55 69z"/>
<path style="fill:#5f5f5f; stroke:none;" d="M105 69L106 70L105 69z"/>
<path style="fill:#7f7f7f; stroke:none;" d="M121 69L122 70L121 69z"/>
<path style="fill:#5f5f5f; stroke:none;" d="M129 69L130 70L129 69z"/>
<path style="fill:#bfbfbf; stroke:none;" d="M141 69L142 70L141 69z"/>
<path style="fill:#5f5f5f; stroke:none;" d="M143 69L144 70L143 69z"/>
<path style="fill:#bfbfbf; stroke:none;" d="M154 69L155 70L154 69z"/>
<path style="fill:#9f9f9f; stroke:none;" d="M157 69L158 70L157 69z"/>
<path style="fill:#3f3f3f; stroke:none;" d="M158 69L159 70L158 69z"/>
<path style="fill:#bfbfbf; stroke:none;" d="M171 69L172 70L171 69z"/>
<path style="fill:#5f5f5f; stroke:none;" d="M173 69L174 70L173 69M194 69L195 70L194 69z"/>
<path style="fill:#9f9f9f; stroke:none;" d="M200 69L201 70L200 69z"/>
<path style="fill:#5f5f5f; stroke:none;" d="M226 69L227 70L226 69z"/>
<path style="fill:#7f7f7f; stroke:none;" d="M13 70L14 71L13 70z"/>
<path style="fill:#3f3f3f; stroke:none;" d="M16 70L17 71L16 70z"/>
<path style="fill:#9f9f9f; stroke:none;" d="M17 70L18 71L17 70z"/>
<path style="fill:#dfdfdf; stroke:none;" d="M18.6667 70.3333C18.2222 70.7778 19.2778 70.7222 19.3333 70.6667C19.7778 70.2222 18.7222 70.2778 18.6667 70.3333z"/>
<path style="fill:#9f9f9f; stroke:none;" d="M22.6667 70.3333C22.2222 70.7778 23.2778 70.7222 23.3333 70.6667C23.7778 70.2222 22.7222 70.2778 22.6667 70.3333z"/>
<path style="fill:#5f5f5f; stroke:none;" d="M24 70L25 71L24 70z"/>
<path style="fill:#3f3f3f; stroke:none;" d="M35 70L36 71L35 70z"/>
<path style="fill:#7f7f7f; stroke:none;" d="M45 70L46 71L45 70z"/>
<path style="fill:#bfbfbf; stroke:none;" d="M54 70L55 71L54 70z"/>
<path style="fill:#3f3f3f; stroke:none;" d="M69 70L70 71L69 70z"/>
<path style="fill:#5f5f5f; stroke:none;" d="M76 70L77 71L76 70z"/>
<path style="fill:#3f3f3f; stroke:none;" d="M84 70L85 71L84 70z"/>
<path style="fill:#bfbfbf; stroke:none;" d="M105 70L106 71L105 70z"/>
<path style="fill:#7f7f7f; stroke:none;" d="M106 70L107 71L106 70z"/>
<path style="fill:#1f1f1f; stroke:none;" d="M107.667 70.3333C107.222 70.7778 108.278 70.7222 108.333 70.6667C108.778 70.2222 107.722 70.2778 107.667 70.3333z"/>
<path style="fill:#9f9f9f; stroke:none;" d="M120 70L121 71L120 70z"/>
<path style="fill:#bfbfbf; stroke:none;" d="M130 70L131 71L130 70z"/>
<path style="fill:#3f3f3f; stroke:none;" d="M139 70L140 71L139 70M144 70L145 71L144 70z"/>
<path style="fill:#bfbfbf; stroke:none;" d="M153 70L154 71L153 70z"/>
<path style="fill:#5f5f5f; stroke:none;" d="M160 70L161 71L160 70z"/>
<path style="fill:#3f3f3f; stroke:none;" d="M175 70L176 71L175 70z"/>
<path style="fill:#bfbfbf; stroke:none;" d="M176.667 70.3333C176.222 70.7778 177.278 70.7222 177.333 70.6667C177.778 70.2222 176.722 70.2778 176.667 70.3333z"/>
<path style="fill:#9f9f9f; stroke:none;" d="M193 70L194 71L193 70z"/>
<path style="fill:#bfbfbf; stroke:none;" d="M201 70L202 71L201 70z"/>
<path style="fill:#5f5f5f; stroke:none;" d="M202 70L203 71L202 70z"/>
<path style="fill:#7f7f7f; stroke:none;" d="M214 70L215 71L214 70z"/>
<path style="fill:#5f5f5f; stroke:none;" d="M216 70L217 71L216 70M225 70L226 71L225 70z"/>
<path style="fill:#bfbfbf; stroke:none;" d="M15 71L16 72L15 71z"/>
<path style="fill:#9f9f9f; stroke:none;" d="M26 71L27 72L26 71z"/>
<path style="fill:#7f7f7f; stroke:none;" d="M46 71L47 72L46 71z"/>
<path style="fill:#bfbfbf; stroke:none;" d="M53 71L54 72L53 71z"/>
<path style="fill:#7f7f7f; stroke:none;" d="M68 71L69 72L68 71z"/>
<path style="fill:#3f3f3f; stroke:none;" d="M77 71L78 72L77 71z"/>
<path style="fill:#5f5f5f; stroke:none;" d="M83 71L84 72L83 71z"/>
<path style="fill:#bfbfbf; stroke:none;" d="M109 71L110 72L109 71z"/>
<path style="fill:#7f7f7f; stroke:none;" d="M110 71L111 72L110 71z"/>
<path style="fill:#3f3f3f; stroke:none;" d="M132 71L133 72L132 71z"/>
<path style="fill:#5f5f5f; stroke:none;" d="M138 71L139 72L138 71z"/>
<path style="fill:#3f3f3f; stroke:none;" d="M162 71L163 72L162 71z"/>
<path style="fill:#9f9f9f; stroke:none;" d="M172 71L172 73L174 73C173.455 71.3648 173.635 71.5451 172 71z"/>
<path style="fill:#7f7f7f; stroke:none;" d="M174 71L175 72L174 71z"/>
<path style="fill:#dfdfdf; stroke:none;" d="M177.333 71.6667C177.278 71.7222 177.222 72.7778 177.667 72.3333C177.722 72.2778 177.778 71.2222 177.333 71.6667z"/>
<path style="fill:#bfbfbf; stroke:none;" d="M185 71L186 72L185 71z"/>
<path style="fill:#5f5f5f; stroke:none;" d="M204 71L205 72L204 71z"/>
<path style="fill:#bfbfbf; stroke:none;" d="M213 71L214 72L213 71z"/>
<path style="fill:#7f7f7f; stroke:none;" d="M217 71L218 72L217 71z"/>
<path style="fill:#9f9f9f; stroke:none;" d="M224 71L225 72L224 71z"/>
<path style="fill:#7f7f7f; stroke:none;" d="M12 72L12 74L14 74C13.4549 72.3648 13.6352 72.5451 12 72z"/>
<path style="fill:#9f9f9f; stroke:none;" d="M14 72L15 73L14 72M28 72L29 73L28 72M47 72L48 73L47 72z"/>
<path style="fill:#3f3f3f; stroke:none;" d="M51 72L52 73L51 72M63 72L64 73L63 72z"/>
<path style="fill:#9f9f9f; stroke:none;" d="M67 72L68 73L67 72z"/>
<path style="fill:#5f5f5f; stroke:none;" d="M78 72L79 73L78 72z"/>
<path style="fill:#9f9f9f; stroke:none;" d="M82 72L83 73L82 72M112 72L113 73L112 72z"/>
<path style="fill:#3f3f3f; stroke:none;" d="M113 72L114 73L113 72M117 72L118 73L117 72z"/>
<path style="fill:#7f7f7f; stroke:none;" d="M133 72L134 73L133 72M137 72L138 73L137 72z"/>
<path style="fill:#5f5f5f; stroke:none;" d="M150 72L151 73L150 72z"/>
<path style="fill:#7f7f7f; stroke:none;" d="M163 72L164 73L163 72z"/>
<path style="fill:#5f5f5f; stroke:none;" d="M167 72L168 73L167 72z"/>
<path style="fill:#3f3f3f; stroke:none;" d="M187 72L188 73L187 72M190 72L191 73L190 72z"/>
<path style="fill:#9f9f9f; stroke:none;" d="M205 72L206 73L205 72z"/>
<path style="fill:#bfbfbf; stroke:none;" d="M218 72L219 73L218 72z"/>
<path style="fill:#7f7f7f; stroke:none;" d="M30 73L31 74L30 73z"/>
<path style="fill:#3f3f3f; stroke:none;" d="M32 73L33 74L32 73z"/>
<path style="fill:#bfbfbf; stroke:none;" d="M48 73L49 74L48 73z"/>
<path style="fill:#7f7f7f; stroke:none;" d="M50 73L51 74L50 73z"/>
<path style="fill:#5f5f5f; stroke:none;" d="M64 73L65 74L64 73z"/>
<path style="fill:#7f7f7f; stroke:none;" d="M79 73L80 74L79 73z"/>
<path style="fill:#bfbfbf; stroke:none;" d="M81 73L82 74L81 73z"/>
<path style="fill:#9f9f9f; stroke:none;" d="M114 73L115 74L114 73z"/>
<path style="fill:#7f7f7f; stroke:none;" d="M116 73L117 74L116 73z"/>
<path style="fill:#bfbfbf; stroke:none;" d="M134 73L135 74L134 73z"/>
<path style="fill:#9f9f9f; stroke:none;" d="M136 73L137 74L136 73z"/>
<path style="fill:#5f5f5f; stroke:none;" d="M147 73L148 74L147 73z"/>
<path style="fill:#9f9f9f; stroke:none;" d="M149 73L150 74L149 73z"/>
<path style="fill:#bfbfbf; stroke:none;" d="M164 73L165 74L164 73z"/>
<path style="fill:#9f9f9f; stroke:none;" d="M166 73L167 74L166 73z"/>
<path style="fill:#5f5f5f; stroke:none;" d="M188.667 73.3333C188.222 73.7778 189.278 73.7222 189.333 73.6667C189.778 73.2222 188.722 73.2778 188.667 73.3333M207 73L208 74L207 73z"/>
<path style="fill:#7f7f7f; stroke:none;" d="M210 73L211 74L210 73z"/>
<path style="fill:#3f3f3f; stroke:none;" d="M220.667 73.3333C220.222 73.7778 221.278 73.7222 221.333 73.6667C221.778 73.2222 220.722 73.2778 220.667 73.3333z"/>
<path style="fill:#9f9f9f; stroke:none;" d="M184 79L185 80L184 79z"/>
<path style="fill:#3f3f3f; stroke:none;" d="M182 80L183 81L182 80z"/>
<path style="fill:#7f7f7f; stroke:none;" d="M181 81L182 82L181 81z"/>
<path style="fill:#bfbfbf; stroke:none;" d="M180 82L181 83L180 82z"/>
<path style="fill:#3f3f3f; stroke:none;" d="M178 83L179 84L178 83z"/>
</svg>
